<svg viewBox="0 0 24 24" xmlns="http://www.w3.org/2000/svg">
  <defs>
    <radialGradient id="instagramGradient" cx="33%" cy="93%">
      <stop offset="0%" stop-color="#FEC564" />
      <stop offset="51%" stop-color="#F2765F" />
      <stop offset="100%" stop-color="#BF37C7" />
    </radialGradient>
    <radialGradient id="instagramGradient2" cx="70%" cy="14%">
      <stop offset="0%" stop-color="#FDF497" />
      <stop offset="59%" stop-color="#FDF497" stop-opacity="0" />
    </radialGradient>
  </defs>
  <path fill="url(#instagramGradient)" d="M12,2.982c2.937,0,3.285.011,4.445.064a6.087,6.087,0,0,1,2.042.379,3.408,3.408,0,0,1,1.265.823,3.408,3.408,0,0,1,.823,1.265,6.087,6.087,0,0,1,.379,2.042c.053,1.16.064,1.508.064,4.445s-.011,3.285-.064,4.445a6.087,6.087,0,0,1-.379,2.042,3.643,3.643,0,0,1-2.088,2.088,6.087,6.087,0,0,1-2.042.379c-1.16.053-1.508.064-4.445.064s-3.285-.011-4.445-.064a6.087,6.087,0,0,1-2.042-.379,3.408,3.408,0,0,1-1.265-.823,3.408,3.408,0,0,1-.823-1.265,6.087,6.087,0,0,1-.379-2.042c-.053-1.16-.064-1.508-.064-4.445s.011-3.285.064-4.445a6.087,6.087,0,0,1,.379-2.042,3.408,3.408,0,0,1,.823-1.265,3.408,3.408,0,0,1,1.265-.823,6.087,6.087,0,0,1,2.042-.379c1.16-.053,1.508-.064,4.445-.064M12,1c-2.987,0-3.362.013-4.535.066a8.074,8.074,0,0,0-2.67.511A5.392,5.392,0,0,0,2.847,2.847,5.392,5.392,0,0,0,1.577,4.795a8.074,8.074,0,0,0-.511,2.67C1.013,8.638,1,9.013,1,12s.013,3.362.066,4.535a8.074,8.074,0,0,0,.511,2.67A5.392,5.392,0,0,0,2.847,21.153,5.392,5.392,0,0,0,4.795,22.423a8.074,8.074,0,0,0,2.67.511C8.638,22.987,9.013,23,12,23s3.362-.013,4.535-.066a8.074,8.074,0,0,0,2.67-.511,5.63,5.63,0,0,0,3.218-3.218,8.074,8.074,0,0,0,.511-2.67C22.987,15.362,23,14.987,23,12s-.013-3.362-.066-4.535a8.074,8.074,0,0,0-.511-2.67A5.392,5.392,0,0,0,21.153,2.847,5.392,5.392,0,0,0,19.205,1.577a8.074,8.074,0,0,0-2.67-.511C15.362,1.013,14.987,1,12,1Z"/>
  <path fill="url(#instagramGradient2)" d="M12,2.982c2.937,0,3.285.011,4.445.064a6.087,6.087,0,0,1,2.042.379,3.408,3.408,0,0,1,1.265.823,3.408,3.408,0,0,1,.823,1.265,6.087,6.087,0,0,1,.379,2.042c.053,1.16.064,1.508.064,4.445s-.011,3.285-.064,4.445a6.087,6.087,0,0,1-.379,2.042,3.643,3.643,0,0,1-2.088,2.088,6.087,6.087,0,0,1-2.042.379c-1.16.053-1.508.064-4.445.064s-3.285-.011-4.445-.064a6.087,6.087,0,0,1-2.042-.379,3.408,3.408,0,0,1-1.265-.823,3.408,3.408,0,0,1-.823-1.265,6.087,6.087,0,0,1-.379-2.042c-.053-1.16-.064-1.508-.064-4.445s.011-3.285.064-4.445a6.087,6.087,0,0,1,.379-2.042,3.408,3.408,0,0,1,.823-1.265,3.408,3.408,0,0,1,1.265-.823,6.087,6.087,0,0,1,2.042-.379c1.16-.053,1.508-.064,4.445-.064M12,1c-2.987,0-3.362.013-4.535.066a8.074,8.074,0,0,0-2.67.511A5.392,5.392,0,0,0,2.847,2.847,5.392,5.392,0,0,0,1.577,4.795a8.074,8.074,0,0,0-.511,2.67C1.013,8.638,1,9.013,1,12s.013,3.362.066,4.535a8.074,8.074,0,0,0,.511,2.67A5.392,5.392,0,0,0,2.847,21.153,5.392,5.392,0,0,0,4.795,22.423a8.074,8.074,0,0,0,2.67.511C8.638,22.987,9.013,23,12,23s3.362-.013,4.535-.066a8.074,8.074,0,0,0,2.67-.511,5.63,5.63,0,0,0,3.218-3.218,8.074,8.074,0,0,0,.511-2.67C22.987,15.362,23,14.987,23,12s-.013-3.362-.066-4.535a8.074,8.074,0,0,0-.511-2.67A5.392,5.392,0,0,0,21.153,2.847,5.392,5.392,0,0,0,19.205,1.577a8.074,8.074,0,0,0-2.67-.511C15.362,1.013,14.987,1,12,1Z"/>
  <circle cx="12" cy="12" r="3.2" fill="transparent" stroke="white" stroke-width="1"/>
  <circle cx="17.5" cy="6.5" r="1.25" fill="white"/>
</svg>